<mxfile host="app.diagrams.net" agent="Mozilla/5.0 (Windows NT 10.0; Win64; x64) AppleWebKit/537.36 (KHTML, like Gecko) Chrome/136.0.0.0 YaBrowser/25.6.0.0 Safari/537.36" version="27.2.0">
  <diagram id="C5RBs43oDa-KdzZeNtuy" name="Page-1">
    <mxGraphModel dx="1426" dy="788" grid="1" gridSize="10" guides="1" tooltips="1" connect="1" arrows="1" fold="1" page="1" pageScale="1" pageWidth="1654" pageHeight="2336" math="0" shadow="0">
      <root>
        <mxCell id="WIyWlLk6GJQsqaUBKTNV-0" />
        <mxCell id="WIyWlLk6GJQsqaUBKTNV-1" parent="WIyWlLk6GJQsqaUBKTNV-0" />
        <mxCell id="zkfFHV4jXpPFQw0GAbJ--0" value="HotelAdmin" style="swimlane;fontStyle=0;align=center;verticalAlign=top;childLayout=stackLayout;horizontal=1;startSize=26;horizontalStack=0;resizeParent=1;resizeLast=0;collapsible=1;marginBottom=0;rounded=0;shadow=0;strokeWidth=1;" parent="WIyWlLk6GJQsqaUBKTNV-1" vertex="1">
          <mxGeometry x="465" y="190" width="395" height="682" as="geometry">
            <mxRectangle x="230" y="140" width="160" height="26" as="alternateBounds" />
          </mxGeometry>
        </mxCell>
        <mxCell id="zkfFHV4jXpPFQw0GAbJ--1" value="rooms: Map&lt;Integer, Room&gt;" style="text;align=left;verticalAlign=top;spacingLeft=4;spacingRight=4;overflow=hidden;rotatable=0;points=[[0,0.5],[1,0.5]];portConstraint=eastwest;" parent="zkfFHV4jXpPFQw0GAbJ--0" vertex="1">
          <mxGeometry y="26" width="395" height="26" as="geometry" />
        </mxCell>
        <mxCell id="zkfFHV4jXpPFQw0GAbJ--2" value="services: Map&lt;String, Services&gt;&#xa;" style="text;align=left;verticalAlign=top;spacingLeft=4;spacingRight=4;overflow=hidden;rotatable=0;points=[[0,0.5],[1,0.5]];portConstraint=eastwest;rounded=0;shadow=0;html=0;" parent="zkfFHV4jXpPFQw0GAbJ--0" vertex="1">
          <mxGeometry y="52" width="395" height="26" as="geometry" />
        </mxCell>
        <mxCell id="nEv5z23I3_v5Ex5m1olu-0" value="&amp;nbsp;guests: List&amp;lt;Guest&amp;gt;" style="text;html=1;align=left;verticalAlign=middle;whiteSpace=wrap;rounded=0;" parent="zkfFHV4jXpPFQw0GAbJ--0" vertex="1">
          <mxGeometry y="78" width="395" height="30" as="geometry" />
        </mxCell>
        <mxCell id="zkfFHV4jXpPFQw0GAbJ--4" value="" style="line;html=1;strokeWidth=1;align=left;verticalAlign=middle;spacingTop=-1;spacingLeft=3;spacingRight=3;rotatable=0;labelPosition=right;points=[];portConstraint=eastwest;" parent="zkfFHV4jXpPFQw0GAbJ--0" vertex="1">
          <mxGeometry y="108" width="395" height="8" as="geometry" />
        </mxCell>
        <mxCell id="zkfFHV4jXpPFQw0GAbJ--5" value="addRoom(number: int, price: double, capacity: int, stars:int)" style="text;align=left;verticalAlign=top;spacingLeft=4;spacingRight=4;overflow=hidden;rotatable=0;points=[[0,0.5],[1,0.5]];portConstraint=eastwest;" parent="zkfFHV4jXpPFQw0GAbJ--0" vertex="1">
          <mxGeometry y="116" width="395" height="26" as="geometry" />
        </mxCell>
        <mxCell id="k6DKxtTHkwI-63cM8oN4-4" value="&amp;nbsp;addService(name: String, price: double)" style="text;html=1;align=left;verticalAlign=middle;whiteSpace=wrap;rounded=0;" parent="zkfFHV4jXpPFQw0GAbJ--0" vertex="1">
          <mxGeometry y="142" width="395" height="30" as="geometry" />
        </mxCell>
        <mxCell id="k6DKxtTHkwI-63cM8oN4-5" value="&amp;nbsp;checkIn(number: int, today: Date)" style="text;html=1;align=left;verticalAlign=middle;whiteSpace=wrap;rounded=0;" parent="zkfFHV4jXpPFQw0GAbJ--0" vertex="1">
          <mxGeometry y="172" width="395" height="30" as="geometry" />
        </mxCell>
        <mxCell id="k6DKxtTHkwI-63cM8oN4-6" value="&amp;nbsp;checkOut(number: out, today: Date)" style="text;html=1;align=left;verticalAlign=middle;whiteSpace=wrap;rounded=0;" parent="zkfFHV4jXpPFQw0GAbJ--0" vertex="1">
          <mxGeometry y="202" width="395" height="30" as="geometry" />
        </mxCell>
        <mxCell id="k6DKxtTHkwI-63cM8oN4-7" value="&amp;nbsp;SetRoomStatus(number: int, status: String)" style="text;html=1;align=left;verticalAlign=middle;whiteSpace=wrap;rounded=0;" parent="zkfFHV4jXpPFQw0GAbJ--0" vertex="1">
          <mxGeometry y="232" width="395" height="30" as="geometry" />
        </mxCell>
        <mxCell id="k6DKxtTHkwI-63cM8oN4-8" value="&amp;nbsp;SetRoomPrice(number: int, price: double)" style="text;html=1;align=left;verticalAlign=middle;whiteSpace=wrap;rounded=0;" parent="zkfFHV4jXpPFQw0GAbJ--0" vertex="1">
          <mxGeometry y="262" width="395" height="30" as="geometry" />
        </mxCell>
        <mxCell id="k6DKxtTHkwI-63cM8oN4-9" value="&amp;nbsp;SetServicePrice(name: String, price: double)" style="text;html=1;align=left;verticalAlign=middle;whiteSpace=wrap;rounded=0;" parent="zkfFHV4jXpPFQw0GAbJ--0" vertex="1">
          <mxGeometry y="292" width="395" height="30" as="geometry" />
        </mxCell>
        <mxCell id="nEv5z23I3_v5Ex5m1olu-2" value="&amp;nbsp;bookRoom(guestName: String, number: int, checkIn: Date, checkOut:&amp;nbsp; &amp;nbsp;Date, serviceNames: List&amp;lt;String&amp;gt;" style="text;html=1;align=left;verticalAlign=middle;whiteSpace=wrap;rounded=0;" parent="zkfFHV4jXpPFQw0GAbJ--0" vertex="1">
          <mxGeometry y="322" width="395" height="30" as="geometry" />
        </mxCell>
        <mxCell id="nEv5z23I3_v5Ex5m1olu-3" value="&amp;nbsp;addServiceToGuest(guestName: String, serviceName: String, date: Date)" style="text;html=1;align=left;verticalAlign=middle;whiteSpace=wrap;rounded=0;" parent="zkfFHV4jXpPFQw0GAbJ--0" vertex="1">
          <mxGeometry y="352" width="395" height="30" as="geometry" />
        </mxCell>
        <mxCell id="nEv5z23I3_v5Ex5m1olu-4" value="&amp;nbsp;getSortedRooms(comparator: Comparator&amp;lt;Room&amp;gt;" style="text;html=1;align=left;verticalAlign=middle;whiteSpace=wrap;rounded=0;" parent="zkfFHV4jXpPFQw0GAbJ--0" vertex="1">
          <mxGeometry y="382" width="395" height="30" as="geometry" />
        </mxCell>
        <mxCell id="nEv5z23I3_v5Ex5m1olu-5" value="&amp;nbsp;getAvailableroomsOn(date: Date, comparator: Comparator&amp;lt;Room&amp;gt;" style="text;html=1;align=left;verticalAlign=middle;whiteSpace=wrap;rounded=0;" parent="zkfFHV4jXpPFQw0GAbJ--0" vertex="1">
          <mxGeometry y="412" width="395" height="30" as="geometry" />
        </mxCell>
        <mxCell id="nEv5z23I3_v5Ex5m1olu-6" value="&amp;nbsp;countAvailableRooms()" style="text;html=1;align=left;verticalAlign=middle;whiteSpace=wrap;rounded=0;" parent="zkfFHV4jXpPFQw0GAbJ--0" vertex="1">
          <mxGeometry y="442" width="395" height="30" as="geometry" />
        </mxCell>
        <mxCell id="nEv5z23I3_v5Ex5m1olu-7" value="&amp;nbsp;countGuests()" style="text;html=1;align=left;verticalAlign=middle;whiteSpace=wrap;rounded=0;" parent="zkfFHV4jXpPFQw0GAbJ--0" vertex="1">
          <mxGeometry y="472" width="395" height="30" as="geometry" />
        </mxCell>
        <mxCell id="nEv5z23I3_v5Ex5m1olu-8" value="&amp;nbsp;getGuestListSorted()" style="text;html=1;align=left;verticalAlign=middle;whiteSpace=wrap;rounded=0;" parent="zkfFHV4jXpPFQw0GAbJ--0" vertex="1">
          <mxGeometry y="502" width="395" height="30" as="geometry" />
        </mxCell>
        <mxCell id="nEv5z23I3_v5Ex5m1olu-9" value="&amp;nbsp;getGuestServices(guestName: String)" style="text;html=1;align=left;verticalAlign=middle;whiteSpace=wrap;rounded=0;" parent="zkfFHV4jXpPFQw0GAbJ--0" vertex="1">
          <mxGeometry y="532" width="395" height="30" as="geometry" />
        </mxCell>
        <mxCell id="nEv5z23I3_v5Ex5m1olu-10" value="&amp;nbsp;getLastBookings(count: int)" style="text;html=1;align=left;verticalAlign=middle;whiteSpace=wrap;rounded=0;" parent="zkfFHV4jXpPFQw0GAbJ--0" vertex="1">
          <mxGeometry y="562" width="395" height="30" as="geometry" />
        </mxCell>
        <mxCell id="nEv5z23I3_v5Ex5m1olu-11" value="&amp;nbsp;getPrices()" style="text;html=1;align=left;verticalAlign=middle;whiteSpace=wrap;rounded=0;" parent="zkfFHV4jXpPFQw0GAbJ--0" vertex="1">
          <mxGeometry y="592" width="395" height="30" as="geometry" />
        </mxCell>
        <mxCell id="nEv5z23I3_v5Ex5m1olu-12" value="&amp;nbsp;getRoomDetails(number: int)" style="text;html=1;align=left;verticalAlign=middle;whiteSpace=wrap;rounded=0;" parent="zkfFHV4jXpPFQw0GAbJ--0" vertex="1">
          <mxGeometry y="622" width="395" height="30" as="geometry" />
        </mxCell>
        <mxCell id="nEv5z23I3_v5Ex5m1olu-13" value="&amp;nbsp;calculateTotal(guestName: String)" style="text;html=1;align=left;verticalAlign=middle;whiteSpace=wrap;rounded=0;" parent="zkfFHV4jXpPFQw0GAbJ--0" vertex="1">
          <mxGeometry y="652" width="395" height="30" as="geometry" />
        </mxCell>
        <mxCell id="nEv5z23I3_v5Ex5m1olu-21" style="edgeStyle=orthogonalEdgeStyle;rounded=0;orthogonalLoop=1;jettySize=auto;html=1;exitX=0.5;exitY=0;exitDx=0;exitDy=0;entryX=0.5;entryY=1;entryDx=0;entryDy=0;endArrow=diamond;endFill=0;" parent="WIyWlLk6GJQsqaUBKTNV-1" source="zkfFHV4jXpPFQw0GAbJ--6" target="nEv5z23I3_v5Ex5m1olu-13" edge="1">
          <mxGeometry relative="1" as="geometry" />
        </mxCell>
        <mxCell id="zkfFHV4jXpPFQw0GAbJ--6" value="Room" style="swimlane;fontStyle=0;align=center;verticalAlign=top;childLayout=stackLayout;horizontal=1;startSize=26;horizontalStack=0;resizeParent=1;resizeLast=0;collapsible=1;marginBottom=0;rounded=0;shadow=0;strokeWidth=1;" parent="WIyWlLk6GJQsqaUBKTNV-1" vertex="1">
          <mxGeometry x="577.5" y="940" width="170" height="560" as="geometry">
            <mxRectangle x="130" y="380" width="160" height="26" as="alternateBounds" />
          </mxGeometry>
        </mxCell>
        <mxCell id="zkfFHV4jXpPFQw0GAbJ--7" value="number: int" style="text;align=left;verticalAlign=top;spacingLeft=4;spacingRight=4;overflow=hidden;rotatable=0;points=[[0,0.5],[1,0.5]];portConstraint=eastwest;" parent="zkfFHV4jXpPFQw0GAbJ--6" vertex="1">
          <mxGeometry y="26" width="170" height="24" as="geometry" />
        </mxCell>
        <mxCell id="zkfFHV4jXpPFQw0GAbJ--8" value="price: double" style="text;align=left;verticalAlign=top;spacingLeft=4;spacingRight=4;overflow=hidden;rotatable=0;points=[[0,0.5],[1,0.5]];portConstraint=eastwest;rounded=0;shadow=0;html=0;" parent="zkfFHV4jXpPFQw0GAbJ--6" vertex="1">
          <mxGeometry y="50" width="170" height="26" as="geometry" />
        </mxCell>
        <mxCell id="k6DKxtTHkwI-63cM8oN4-13" value="&amp;nbsp;status: String" style="text;html=1;align=left;verticalAlign=middle;whiteSpace=wrap;rounded=0;" parent="zkfFHV4jXpPFQw0GAbJ--6" vertex="1">
          <mxGeometry y="76" width="170" height="30" as="geometry" />
        </mxCell>
        <mxCell id="k6DKxtTHkwI-63cM8oN4-14" value="&amp;nbsp;capacity: int" style="text;html=1;align=left;verticalAlign=middle;whiteSpace=wrap;rounded=0;" parent="zkfFHV4jXpPFQw0GAbJ--6" vertex="1">
          <mxGeometry y="106" width="170" height="30" as="geometry" />
        </mxCell>
        <mxCell id="k6DKxtTHkwI-63cM8oN4-15" value="&amp;nbsp;stars: int" style="text;html=1;align=left;verticalAlign=middle;whiteSpace=wrap;rounded=0;" parent="zkfFHV4jXpPFQw0GAbJ--6" vertex="1">
          <mxGeometry y="136" width="170" height="30" as="geometry" />
        </mxCell>
        <mxCell id="k6DKxtTHkwI-63cM8oN4-16" value="&amp;nbsp;bookings: List&amp;lt;Booking&amp;gt;" style="text;html=1;align=left;verticalAlign=middle;whiteSpace=wrap;rounded=0;" parent="zkfFHV4jXpPFQw0GAbJ--6" vertex="1">
          <mxGeometry y="166" width="170" height="30" as="geometry" />
        </mxCell>
        <mxCell id="zkfFHV4jXpPFQw0GAbJ--9" value="" style="line;html=1;strokeWidth=1;align=left;verticalAlign=middle;spacingTop=-1;spacingLeft=3;spacingRight=3;rotatable=0;labelPosition=right;points=[];portConstraint=eastwest;" parent="zkfFHV4jXpPFQw0GAbJ--6" vertex="1">
          <mxGeometry y="196" width="170" height="8" as="geometry" />
        </mxCell>
        <mxCell id="zkfFHV4jXpPFQw0GAbJ--11" value="checkIn(today: Date)" style="text;align=left;verticalAlign=top;spacingLeft=4;spacingRight=4;overflow=hidden;rotatable=0;points=[[0,0.5],[1,0.5]];portConstraint=eastwest;" parent="zkfFHV4jXpPFQw0GAbJ--6" vertex="1">
          <mxGeometry y="204" width="170" height="26" as="geometry" />
        </mxCell>
        <mxCell id="k6DKxtTHkwI-63cM8oN4-17" value="&amp;nbsp;checkOut(&lt;span style=&quot;text-wrap-mode: nowrap;&quot;&gt;today: Date&lt;/span&gt;)" style="text;html=1;align=left;verticalAlign=middle;whiteSpace=wrap;rounded=0;" parent="zkfFHV4jXpPFQw0GAbJ--6" vertex="1">
          <mxGeometry y="230" width="170" height="30" as="geometry" />
        </mxCell>
        <mxCell id="k6DKxtTHkwI-63cM8oN4-18" value="&amp;nbsp;setStatus(newStatus: String)" style="text;html=1;align=left;verticalAlign=middle;whiteSpace=wrap;rounded=0;" parent="zkfFHV4jXpPFQw0GAbJ--6" vertex="1">
          <mxGeometry y="260" width="170" height="30" as="geometry" />
        </mxCell>
        <mxCell id="k6DKxtTHkwI-63cM8oN4-19" value="&amp;nbsp;setPrice(newPrice: double)" style="text;html=1;align=left;verticalAlign=middle;whiteSpace=wrap;rounded=0;" parent="zkfFHV4jXpPFQw0GAbJ--6" vertex="1">
          <mxGeometry y="290" width="170" height="30" as="geometry" />
        </mxCell>
        <mxCell id="k6DKxtTHkwI-63cM8oN4-20" value="&amp;nbsp;getNumber(): int" style="text;html=1;align=left;verticalAlign=middle;whiteSpace=wrap;rounded=0;" parent="zkfFHV4jXpPFQw0GAbJ--6" vertex="1">
          <mxGeometry y="320" width="170" height="30" as="geometry" />
        </mxCell>
        <mxCell id="nEv5z23I3_v5Ex5m1olu-14" value="&amp;nbsp;getPrice(): double" style="text;html=1;align=left;verticalAlign=middle;whiteSpace=wrap;rounded=0;" parent="zkfFHV4jXpPFQw0GAbJ--6" vertex="1">
          <mxGeometry y="350" width="170" height="30" as="geometry" />
        </mxCell>
        <mxCell id="nEv5z23I3_v5Ex5m1olu-15" value="&amp;nbsp;getStatus: String" style="text;html=1;align=left;verticalAlign=middle;whiteSpace=wrap;rounded=0;" parent="zkfFHV4jXpPFQw0GAbJ--6" vertex="1">
          <mxGeometry y="380" width="170" height="30" as="geometry" />
        </mxCell>
        <mxCell id="nEv5z23I3_v5Ex5m1olu-16" value="&amp;nbsp;getCapacity: int" style="text;html=1;align=left;verticalAlign=middle;whiteSpace=wrap;rounded=0;" parent="zkfFHV4jXpPFQw0GAbJ--6" vertex="1">
          <mxGeometry y="410" width="170" height="30" as="geometry" />
        </mxCell>
        <mxCell id="nEv5z23I3_v5Ex5m1olu-17" value="&amp;nbsp;getStars: int" style="text;html=1;align=left;verticalAlign=middle;whiteSpace=wrap;rounded=0;" parent="zkfFHV4jXpPFQw0GAbJ--6" vertex="1">
          <mxGeometry y="440" width="170" height="30" as="geometry" />
        </mxCell>
        <mxCell id="nEv5z23I3_v5Ex5m1olu-18" value="&amp;nbsp;getDetails: String" style="text;html=1;align=left;verticalAlign=middle;whiteSpace=wrap;rounded=0;" parent="zkfFHV4jXpPFQw0GAbJ--6" vertex="1">
          <mxGeometry y="470" width="170" height="30" as="geometry" />
        </mxCell>
        <mxCell id="nEv5z23I3_v5Ex5m1olu-19" value="&amp;nbsp;addBooking(booking: Booking)" style="text;html=1;align=left;verticalAlign=middle;whiteSpace=wrap;rounded=0;" parent="zkfFHV4jXpPFQw0GAbJ--6" vertex="1">
          <mxGeometry y="500" width="170" height="30" as="geometry" />
        </mxCell>
        <mxCell id="nEv5z23I3_v5Ex5m1olu-20" value="&amp;nbsp;isAvailableOn(date: Date)" style="text;html=1;align=left;verticalAlign=middle;whiteSpace=wrap;rounded=0;" parent="zkfFHV4jXpPFQw0GAbJ--6" vertex="1">
          <mxGeometry y="530" width="170" height="30" as="geometry" />
        </mxCell>
        <mxCell id="zkfFHV4jXpPFQw0GAbJ--13" value="Service" style="swimlane;fontStyle=0;align=center;verticalAlign=top;childLayout=stackLayout;horizontal=1;startSize=26;horizontalStack=0;resizeParent=1;resizeLast=0;collapsible=1;marginBottom=0;rounded=0;shadow=0;strokeWidth=1;" parent="WIyWlLk6GJQsqaUBKTNV-1" vertex="1">
          <mxGeometry x="900" y="1030" width="310" height="330" as="geometry">
            <mxRectangle x="340" y="380" width="170" height="26" as="alternateBounds" />
          </mxGeometry>
        </mxCell>
        <mxCell id="zkfFHV4jXpPFQw0GAbJ--14" value="name: String" style="text;align=left;verticalAlign=top;spacingLeft=4;spacingRight=4;overflow=hidden;rotatable=0;points=[[0,0.5],[1,0.5]];portConstraint=eastwest;" parent="zkfFHV4jXpPFQw0GAbJ--13" vertex="1">
          <mxGeometry y="26" width="310" height="26" as="geometry" />
        </mxCell>
        <mxCell id="k6DKxtTHkwI-63cM8oN4-23" value="&amp;nbsp;price: double" style="text;html=1;align=left;verticalAlign=middle;whiteSpace=wrap;rounded=0;" parent="zkfFHV4jXpPFQw0GAbJ--13" vertex="1">
          <mxGeometry y="52" width="310" height="30" as="geometry" />
        </mxCell>
        <mxCell id="-iWHiE5ypa9uCo2HFtrk-0" value="&amp;nbsp;priceAtOrderTime: double" style="text;html=1;align=left;verticalAlign=middle;whiteSpace=wrap;rounded=0;" vertex="1" parent="zkfFHV4jXpPFQw0GAbJ--13">
          <mxGeometry y="82" width="310" height="30" as="geometry" />
        </mxCell>
        <mxCell id="-iWHiE5ypa9uCo2HFtrk-1" value="&amp;nbsp;orderedDate: Date" style="text;html=1;align=left;verticalAlign=middle;whiteSpace=wrap;rounded=0;" vertex="1" parent="zkfFHV4jXpPFQw0GAbJ--13">
          <mxGeometry y="112" width="310" height="30" as="geometry" />
        </mxCell>
        <mxCell id="zkfFHV4jXpPFQw0GAbJ--15" value="" style="line;html=1;strokeWidth=1;align=left;verticalAlign=middle;spacingTop=-1;spacingLeft=3;spacingRight=3;rotatable=0;labelPosition=right;points=[];portConstraint=eastwest;" parent="zkfFHV4jXpPFQw0GAbJ--13" vertex="1">
          <mxGeometry y="142" width="310" height="8" as="geometry" />
        </mxCell>
        <mxCell id="k6DKxtTHkwI-63cM8oN4-24" value="&amp;nbsp;setPrice(newPrice: double)" style="text;html=1;align=left;verticalAlign=middle;whiteSpace=wrap;rounded=0;" parent="zkfFHV4jXpPFQw0GAbJ--13" vertex="1">
          <mxGeometry y="150" width="310" height="30" as="geometry" />
        </mxCell>
        <mxCell id="k6DKxtTHkwI-63cM8oN4-25" value="&amp;nbsp;getName(): String" style="text;html=1;align=left;verticalAlign=middle;whiteSpace=wrap;rounded=0;" parent="zkfFHV4jXpPFQw0GAbJ--13" vertex="1">
          <mxGeometry y="180" width="310" height="30" as="geometry" />
        </mxCell>
        <mxCell id="nEv5z23I3_v5Ex5m1olu-22" value="&amp;nbsp;getCurrentPrice(): double" style="text;html=1;align=left;verticalAlign=middle;whiteSpace=wrap;rounded=0;" parent="zkfFHV4jXpPFQw0GAbJ--13" vertex="1">
          <mxGeometry y="210" width="310" height="30" as="geometry" />
        </mxCell>
        <mxCell id="-iWHiE5ypa9uCo2HFtrk-2" value="&amp;nbsp;getPriceAtOrderTime(): double" style="text;html=1;align=left;verticalAlign=middle;whiteSpace=wrap;rounded=0;" vertex="1" parent="zkfFHV4jXpPFQw0GAbJ--13">
          <mxGeometry y="240" width="310" height="30" as="geometry" />
        </mxCell>
        <mxCell id="-iWHiE5ypa9uCo2HFtrk-4" value="&amp;nbsp;getOrderedDate(): Date" style="text;html=1;align=left;verticalAlign=middle;whiteSpace=wrap;rounded=0;" vertex="1" parent="zkfFHV4jXpPFQw0GAbJ--13">
          <mxGeometry y="270" width="310" height="30" as="geometry" />
        </mxCell>
        <mxCell id="-iWHiE5ypa9uCo2HFtrk-5" value="&amp;nbsp;createOrdered(name: String, price: double, date: Date)" style="text;html=1;align=left;verticalAlign=middle;whiteSpace=wrap;rounded=0;" vertex="1" parent="zkfFHV4jXpPFQw0GAbJ--13">
          <mxGeometry y="300" width="310" height="30" as="geometry" />
        </mxCell>
        <mxCell id="k6DKxtTHkwI-63cM8oN4-12" style="edgeStyle=orthogonalEdgeStyle;rounded=0;orthogonalLoop=1;jettySize=auto;html=1;exitX=0.5;exitY=1;exitDx=0;exitDy=0;entryX=0.5;entryY=0;entryDx=0;entryDy=0;" parent="WIyWlLk6GJQsqaUBKTNV-1" source="zkfFHV4jXpPFQw0GAbJ--17" target="zkfFHV4jXpPFQw0GAbJ--0" edge="1">
          <mxGeometry relative="1" as="geometry" />
        </mxCell>
        <mxCell id="zkfFHV4jXpPFQw0GAbJ--17" value="Main" style="swimlane;fontStyle=0;align=center;verticalAlign=top;childLayout=stackLayout;horizontal=1;startSize=26;horizontalStack=0;resizeParent=1;resizeLast=0;collapsible=1;marginBottom=0;rounded=0;shadow=0;strokeWidth=1;" parent="WIyWlLk6GJQsqaUBKTNV-1" vertex="1">
          <mxGeometry x="582.5" y="30" width="160" height="70" as="geometry">
            <mxRectangle x="550" y="140" width="160" height="26" as="alternateBounds" />
          </mxGeometry>
        </mxCell>
        <mxCell id="zkfFHV4jXpPFQw0GAbJ--23" value="" style="line;html=1;strokeWidth=1;align=left;verticalAlign=middle;spacingTop=-1;spacingLeft=3;spacingRight=3;rotatable=0;labelPosition=right;points=[];portConstraint=eastwest;" parent="zkfFHV4jXpPFQw0GAbJ--17" vertex="1">
          <mxGeometry y="26" width="160" height="8" as="geometry" />
        </mxCell>
        <mxCell id="k6DKxtTHkwI-63cM8oN4-0" value="&amp;nbsp;main(args: String)" style="text;html=1;align=left;verticalAlign=middle;resizable=0;points=[];autosize=1;strokeColor=none;fillColor=none;" parent="zkfFHV4jXpPFQw0GAbJ--17" vertex="1">
          <mxGeometry y="34" width="160" height="30" as="geometry" />
        </mxCell>
        <mxCell id="nEv5z23I3_v5Ex5m1olu-25" style="edgeStyle=orthogonalEdgeStyle;rounded=0;orthogonalLoop=1;jettySize=auto;html=1;exitX=0.5;exitY=0;exitDx=0;exitDy=0;endArrow=diamond;endFill=0;" parent="WIyWlLk6GJQsqaUBKTNV-1" source="zkfFHV4jXpPFQw0GAbJ--13" edge="1">
          <mxGeometry relative="1" as="geometry">
            <mxPoint x="780" y="873" as="targetPoint" />
            <Array as="points">
              <mxPoint x="980" y="951" />
              <mxPoint x="780" y="951" />
              <mxPoint x="780" y="873" />
            </Array>
          </mxGeometry>
        </mxCell>
        <mxCell id="nEv5z23I3_v5Ex5m1olu-27" value="Guest" style="swimlane;fontStyle=0;align=center;verticalAlign=top;childLayout=stackLayout;horizontal=1;startSize=26;horizontalStack=0;resizeParent=1;resizeLast=0;collapsible=1;marginBottom=0;rounded=0;shadow=0;strokeWidth=1;" parent="WIyWlLk6GJQsqaUBKTNV-1" vertex="1">
          <mxGeometry x="260" y="1030" width="250" height="270" as="geometry">
            <mxRectangle x="340" y="380" width="170" height="26" as="alternateBounds" />
          </mxGeometry>
        </mxCell>
        <mxCell id="nEv5z23I3_v5Ex5m1olu-28" value="name: String" style="text;align=left;verticalAlign=top;spacingLeft=4;spacingRight=4;overflow=hidden;rotatable=0;points=[[0,0.5],[1,0.5]];portConstraint=eastwest;" parent="nEv5z23I3_v5Ex5m1olu-27" vertex="1">
          <mxGeometry y="26" width="250" height="26" as="geometry" />
        </mxCell>
        <mxCell id="nEv5z23I3_v5Ex5m1olu-29" value="&amp;nbsp;history: List&amp;lt;Booking&amp;gt;" style="text;html=1;align=left;verticalAlign=middle;whiteSpace=wrap;rounded=0;" parent="nEv5z23I3_v5Ex5m1olu-27" vertex="1">
          <mxGeometry y="52" width="250" height="30" as="geometry" />
        </mxCell>
        <mxCell id="nEv5z23I3_v5Ex5m1olu-34" value="&amp;nbsp;orderedServices: List&amp;lt;OrderedService&amp;gt;" style="text;html=1;align=left;verticalAlign=middle;whiteSpace=wrap;rounded=0;" parent="nEv5z23I3_v5Ex5m1olu-27" vertex="1">
          <mxGeometry y="82" width="250" height="30" as="geometry" />
        </mxCell>
        <mxCell id="nEv5z23I3_v5Ex5m1olu-30" value="" style="line;html=1;strokeWidth=1;align=left;verticalAlign=middle;spacingTop=-1;spacingLeft=3;spacingRight=3;rotatable=0;labelPosition=right;points=[];portConstraint=eastwest;" parent="nEv5z23I3_v5Ex5m1olu-27" vertex="1">
          <mxGeometry y="112" width="250" height="8" as="geometry" />
        </mxCell>
        <mxCell id="nEv5z23I3_v5Ex5m1olu-31" value="&amp;nbsp;getHistory(): List&amp;lt;Booking&amp;gt;" style="text;html=1;align=left;verticalAlign=middle;whiteSpace=wrap;rounded=0;" parent="nEv5z23I3_v5Ex5m1olu-27" vertex="1">
          <mxGeometry y="120" width="250" height="30" as="geometry" />
        </mxCell>
        <mxCell id="nEv5z23I3_v5Ex5m1olu-32" value="&amp;nbsp;getName(): String" style="text;html=1;align=left;verticalAlign=middle;whiteSpace=wrap;rounded=0;" parent="nEv5z23I3_v5Ex5m1olu-27" vertex="1">
          <mxGeometry y="150" width="250" height="30" as="geometry" />
        </mxCell>
        <mxCell id="nEv5z23I3_v5Ex5m1olu-33" value="&amp;nbsp;addBooking(booking: Booking)" style="text;html=1;align=left;verticalAlign=middle;whiteSpace=wrap;rounded=0;" parent="nEv5z23I3_v5Ex5m1olu-27" vertex="1">
          <mxGeometry y="180" width="250" height="30" as="geometry" />
        </mxCell>
        <mxCell id="nEv5z23I3_v5Ex5m1olu-35" value="&amp;nbsp;addOrderedService(serviceName: String,&amp;nbsp; &amp;nbsp;price: double, date: Date)" style="text;html=1;align=left;verticalAlign=middle;whiteSpace=wrap;rounded=0;" parent="nEv5z23I3_v5Ex5m1olu-27" vertex="1">
          <mxGeometry y="210" width="250" height="30" as="geometry" />
        </mxCell>
        <mxCell id="nEv5z23I3_v5Ex5m1olu-36" value="&amp;nbsp;getOrderedServices(): List&amp;lt;OrderedService&amp;gt;" style="text;html=1;align=left;verticalAlign=middle;whiteSpace=wrap;rounded=0;" parent="nEv5z23I3_v5Ex5m1olu-27" vertex="1">
          <mxGeometry y="240" width="250" height="30" as="geometry" />
        </mxCell>
        <mxCell id="nEv5z23I3_v5Ex5m1olu-37" style="edgeStyle=orthogonalEdgeStyle;rounded=0;orthogonalLoop=1;jettySize=auto;html=1;exitX=0.5;exitY=0;exitDx=0;exitDy=0;entryX=0.154;entryY=1.1;entryDx=0;entryDy=0;entryPerimeter=0;endArrow=diamond;endFill=0;" parent="WIyWlLk6GJQsqaUBKTNV-1" source="nEv5z23I3_v5Ex5m1olu-27" target="nEv5z23I3_v5Ex5m1olu-13" edge="1">
          <mxGeometry relative="1" as="geometry" />
        </mxCell>
        <mxCell id="nEv5z23I3_v5Ex5m1olu-51" style="edgeStyle=orthogonalEdgeStyle;rounded=0;orthogonalLoop=1;jettySize=auto;html=1;exitX=0.5;exitY=0;exitDx=0;exitDy=0;entryX=0.5;entryY=1;entryDx=0;entryDy=0;endArrow=diamond;endFill=0;" parent="WIyWlLk6GJQsqaUBKTNV-1" source="nEv5z23I3_v5Ex5m1olu-38" target="nEv5z23I3_v5Ex5m1olu-20" edge="1">
          <mxGeometry relative="1" as="geometry" />
        </mxCell>
        <mxCell id="nEv5z23I3_v5Ex5m1olu-38" value="Booking" style="swimlane;fontStyle=0;align=center;verticalAlign=top;childLayout=stackLayout;horizontal=1;startSize=26;horizontalStack=0;resizeParent=1;resizeLast=0;collapsible=1;marginBottom=0;rounded=0;shadow=0;strokeWidth=1;" parent="WIyWlLk6GJQsqaUBKTNV-1" vertex="1">
          <mxGeometry x="537.5" y="1590" width="250" height="360" as="geometry">
            <mxRectangle x="340" y="380" width="170" height="26" as="alternateBounds" />
          </mxGeometry>
        </mxCell>
        <mxCell id="nEv5z23I3_v5Ex5m1olu-39" value="guest: Guest" style="text;align=left;verticalAlign=top;spacingLeft=4;spacingRight=4;overflow=hidden;rotatable=0;points=[[0,0.5],[1,0.5]];portConstraint=eastwest;" parent="nEv5z23I3_v5Ex5m1olu-38" vertex="1">
          <mxGeometry y="26" width="250" height="26" as="geometry" />
        </mxCell>
        <mxCell id="nEv5z23I3_v5Ex5m1olu-40" value="&amp;nbsp;room: Room" style="text;html=1;align=left;verticalAlign=middle;whiteSpace=wrap;rounded=0;" parent="nEv5z23I3_v5Ex5m1olu-38" vertex="1">
          <mxGeometry y="52" width="250" height="30" as="geometry" />
        </mxCell>
        <mxCell id="nEv5z23I3_v5Ex5m1olu-41" value="&amp;nbsp;checkIn: Date" style="text;html=1;align=left;verticalAlign=middle;whiteSpace=wrap;rounded=0;" parent="nEv5z23I3_v5Ex5m1olu-38" vertex="1">
          <mxGeometry y="82" width="250" height="30" as="geometry" />
        </mxCell>
        <mxCell id="nEv5z23I3_v5Ex5m1olu-48" value="&amp;nbsp;checkOut: Date" style="text;html=1;align=left;verticalAlign=middle;whiteSpace=wrap;rounded=0;" parent="nEv5z23I3_v5Ex5m1olu-38" vertex="1">
          <mxGeometry y="112" width="250" height="30" as="geometry" />
        </mxCell>
        <mxCell id="nEv5z23I3_v5Ex5m1olu-49" value="&amp;nbsp;services: List&amp;lt;Service&amp;gt;" style="text;html=1;align=left;verticalAlign=middle;whiteSpace=wrap;rounded=0;" parent="nEv5z23I3_v5Ex5m1olu-38" vertex="1">
          <mxGeometry y="142" width="250" height="30" as="geometry" />
        </mxCell>
        <mxCell id="nEv5z23I3_v5Ex5m1olu-42" value="" style="line;html=1;strokeWidth=1;align=left;verticalAlign=middle;spacingTop=-1;spacingLeft=3;spacingRight=3;rotatable=0;labelPosition=right;points=[];portConstraint=eastwest;" parent="nEv5z23I3_v5Ex5m1olu-38" vertex="1">
          <mxGeometry y="172" width="250" height="8" as="geometry" />
        </mxCell>
        <mxCell id="nEv5z23I3_v5Ex5m1olu-43" value="&amp;nbsp;getGuest(): Guest" style="text;html=1;align=left;verticalAlign=middle;whiteSpace=wrap;rounded=0;" parent="nEv5z23I3_v5Ex5m1olu-38" vertex="1">
          <mxGeometry y="180" width="250" height="30" as="geometry" />
        </mxCell>
        <mxCell id="nEv5z23I3_v5Ex5m1olu-44" value="&amp;nbsp;getRoom(): Room" style="text;html=1;align=left;verticalAlign=middle;whiteSpace=wrap;rounded=0;" parent="nEv5z23I3_v5Ex5m1olu-38" vertex="1">
          <mxGeometry y="210" width="250" height="30" as="geometry" />
        </mxCell>
        <mxCell id="nEv5z23I3_v5Ex5m1olu-45" value="&amp;nbsp;getCheckIn(): Date" style="text;html=1;align=left;verticalAlign=middle;whiteSpace=wrap;rounded=0;" parent="nEv5z23I3_v5Ex5m1olu-38" vertex="1">
          <mxGeometry y="240" width="250" height="30" as="geometry" />
        </mxCell>
        <mxCell id="nEv5z23I3_v5Ex5m1olu-46" value="&amp;nbsp;getCheckOut: Date" style="text;html=1;align=left;verticalAlign=middle;whiteSpace=wrap;rounded=0;" parent="nEv5z23I3_v5Ex5m1olu-38" vertex="1">
          <mxGeometry y="270" width="250" height="30" as="geometry" />
        </mxCell>
        <mxCell id="nEv5z23I3_v5Ex5m1olu-47" value="&amp;nbsp;getServices(): List&amp;lt;Service&amp;gt;" style="text;html=1;align=left;verticalAlign=middle;whiteSpace=wrap;rounded=0;" parent="nEv5z23I3_v5Ex5m1olu-38" vertex="1">
          <mxGeometry y="300" width="250" height="30" as="geometry" />
        </mxCell>
        <mxCell id="nEv5z23I3_v5Ex5m1olu-50" value="&amp;nbsp;getTotalCost(): double" style="text;html=1;align=left;verticalAlign=middle;whiteSpace=wrap;rounded=0;" parent="nEv5z23I3_v5Ex5m1olu-38" vertex="1">
          <mxGeometry y="330" width="250" height="30" as="geometry" />
        </mxCell>
        <mxCell id="nEv5z23I3_v5Ex5m1olu-53" style="edgeStyle=orthogonalEdgeStyle;rounded=0;orthogonalLoop=1;jettySize=auto;html=1;exitX=0;exitY=0.75;exitDx=0;exitDy=0;entryX=0.472;entryY=1.067;entryDx=0;entryDy=0;entryPerimeter=0;endArrow=diamond;endFill=0;" parent="WIyWlLk6GJQsqaUBKTNV-1" source="nEv5z23I3_v5Ex5m1olu-48" target="nEv5z23I3_v5Ex5m1olu-36" edge="1">
          <mxGeometry relative="1" as="geometry" />
        </mxCell>
        <mxCell id="-iWHiE5ypa9uCo2HFtrk-7" style="edgeStyle=orthogonalEdgeStyle;rounded=0;orthogonalLoop=1;jettySize=auto;html=1;exitX=0.5;exitY=1;exitDx=0;exitDy=0;entryX=1;entryY=0.75;entryDx=0;entryDy=0;endArrow=diamond;endFill=0;" edge="1" parent="WIyWlLk6GJQsqaUBKTNV-1" source="-iWHiE5ypa9uCo2HFtrk-5" target="nEv5z23I3_v5Ex5m1olu-43">
          <mxGeometry relative="1" as="geometry" />
        </mxCell>
      </root>
    </mxGraphModel>
  </diagram>
</mxfile>
